<?xml version="1.0" encoding="utf-8"?>
<!-- Generator: Adobe Illustrator 19.0.0, SVG Export Plug-In . SVG Version: 6.00 Build 0)  -->
<svg version="1.1"
	 id="Camada_1" xmlns:cc="http://creativecommons.org/ns#" xmlns:dc="http://purl.org/dc/elements/1.1/" xmlns:rdf="http://www.w3.org/1999/02/22-rdf-syntax-ns#"
	 xmlns="http://www.w3.org/2000/svg" xmlns:xlink="http://www.w3.org/1999/xlink" x="0px" y="0px" viewBox="-293 214 24 24"
	 style="enable-background:new -293 214 24 24;" xml:space="preserve">
<style type="text/css">
	.st0{fill:#FFFFFF;}
</style>
<g transform="translate(0 -1028.4)">
	<path class="st0" d="M-274,1245.2h-6h-2h-6c-1.1,0-2,0.9-2,2.1v14.8c0,1.2,0.9,2.1,2,2.1h6h2h6c1.1,0,2-1,2-2.1v-14.8
		C-272,1246.1-272.9,1245.2-274,1245.2z M-272.3,1261.4c0,1.1-0.9,2-1.9,2h-5.8h-1.9h-5.8c-1.1,0-1.9-0.9-1.9-2v-14
		c0-1.1,0.9-2,1.9-2h5.8h1.9h5.8c1.1,0,1.9,0.9,1.9,2V1261.4z"/>
	<path class="st0" d="M-287,1243.4c-0.6,0-1,0.4-1,1v3c0,0.6,0.4,1,1,1s1-0.4,1-1v-3C-286,1243.8-286.4,1243.4-287,1243.4z"/>
	<rect x="-289.4" y="1249.9" class="st0" width="16.7" height="0.3"/>
</g>
<path class="st0" d="M-287,218c0.7,0,1.3,0.6,1.3,1.3c0,0.7-0.6,1.3-1.3,1.3s-1.3-0.6-1.3-1.3C-288.3,218.6-287.7,218-287,218
	c-0.8,0-1.5,0.7-1.5,1.5s0.7,1.5,1.5,1.5s1.5-0.7,1.5-1.5S-286.2,218-287,218z"/>
<path class="st0" d="M-275,215c-0.6,0-1,0.4-1,1v3c0,0.6,0.4,1,1,1s1-0.4,1-1v-3C-274,215.4-274.4,215-275,215z"/>
<path class="st0" d="M-275,218c0.7,0,1.3,0.6,1.3,1.3c0,0.7-0.6,1.3-1.3,1.3s-1.3-0.6-1.3-1.3C-276.3,218.6-275.7,218-275,218
	c-0.8,0-1.5,0.7-1.5,1.5s0.7,1.5,1.5,1.5s1.5-0.7,1.5-1.5S-274.2,218-275,218z"/>
<path class="st0" d="M-278.7,222.7c-0.9,0-1.7,0.3-2.3,0.8c-0.7-0.5-1.5-0.8-2.3-0.8c-2,0-3.7,1.7-3.7,3.7c0,1.1,0.4,1.9,1.1,2.6
	c0.1,0.1,0.2,0.2,0.3,0.3l4.7,4.7l4.7-4.7l0.2-0.3c0.7-0.7,1.1-1.6,1.1-2.7C-275,224.3-276.7,222.7-278.7,222.7z M-276.7,228.9
	l-0.2,0.2l-4.1,4.2l-4.1-4.2c-0.1-0.1-0.1-0.1-0.3-0.3c-0.6-0.6-0.9-1.4-0.9-2.3c0-1.8,1.5-3.3,3.3-3.3c0.8,0,1.5,0.3,2.1,0.7
	c0.5-0.5,1.3-0.7,2.1-0.7c1.8,0,3.3,1.5,3.3,3.3C-275.7,227.5-276.1,228.3-276.7,228.9z"/>
</svg>
