<?xml version="1.0" encoding="utf-8"?>
<!-- Generator: Adobe Illustrator 19.0.0, SVG Export Plug-In . SVG Version: 6.00 Build 0)  -->
<svg version="1.1"
	 id="Camada_1" xmlns:cc="http://creativecommons.org/ns#" xmlns:dc="http://purl.org/dc/elements/1.1/" xmlns:rdf="http://www.w3.org/1999/02/22-rdf-syntax-ns#"
	 xmlns="http://www.w3.org/2000/svg" xmlns:xlink="http://www.w3.org/1999/xlink" x="0px" y="0px" viewBox="-293 214 24 24"
	 style="enable-background:new -293 214 24 24;" xml:space="preserve">
<style type="text/css">
	.st0{fill:#FFFFFF;}
</style>
<path class="st0" d="M-277.5,217c-1.3,0-2.5,0.4-3.5,1.2c-1-0.8-2.2-1.2-3.5-1.2c-3,0-5.5,2.5-5.5,5.5c0,1.6,0.6,2.9,1.6,3.9
	c0.1,0.2,0.3,0.3,0.4,0.5l7,7.1l7-7.1l0.3-0.4c1-1,1.7-2.4,1.7-4C-272,219.5-274.5,217-277.5,217z M-274.5,226.4l-0.3,0.3l-6.2,6.3
	l-6.2-6.3c-0.1-0.1-0.2-0.2-0.4-0.4c-0.9-0.9-1.4-2.1-1.4-3.4c0-2.7,2.2-4.9,4.9-4.9c1.2,0,2.3,0.4,3.1,1.1c0.8-0.7,1.9-1.1,3.1-1.1
	c2.7,0,4.9,2.2,4.9,4.9C-273,224.3-273.6,225.5-274.5,226.4z"/>
</svg>
