<?xml version="1.0" encoding="utf-8"?>
<!-- Generator: Adobe Illustrator 18.0.0, SVG Export Plug-In . SVG Version: 6.00 Build 0)  -->
<!DOCTYPE svg PUBLIC "-//W3C//DTD SVG 1.1//EN" "http://www.w3.org/Graphics/SVG/1.1/DTD/svg11.dtd">
<svg version="1.1" id="Camada_1" xmlns="http://www.w3.org/2000/svg" xmlns:xlink="http://www.w3.org/1999/xlink" x="0px" y="0px"
	 viewBox="0 0 512 512" enable-background="new 0 0 512 512" xml:space="preserve">
<g>
	<path fill="#272727" d="M122.6,434.5c-0.2-0.1-0.3-0.2-0.4-0.4c-10.7-11.3-9.6-24.2-5.7-37.8c16.7-58.3,44.3-112.2,71.3-166.3
		c21.2-42.6,33.4-86.2,21.5-133.6c-3.8-15.1-8.2-30.2-21.4-40.7c-9.9-7.9-5-13.3,4.1-15.2c44.6-8.8,89.2-7.7,133.7,1.4
		c6.4,1.3,11.6,4.8,6.2,10.9c-47.1,53.6-32.9,110-8.4,166.9c6.7,15.6,15.2,30.4,22.3,45.8c19.3,41.9,40.1,83.3,52.8,127.8
		c4.2,14.5,6.8,29.3-6,41.7c-0.1,0.1-0.2,0.2-0.3,0.3c-30.3,21-65.4,27.5-101,30C232.5,469.3,174.4,467.8,122.6,434.5z M256.2,454.6
		c0.1,0,0.1,0,0.2,0c38.3-1.6,75.9-4.9,111.4-20.3c17-7.4,25.3-18,17.4-36.8c-3.4-8.1-5.2-16.9-8.2-25.2
		c-18.5-50.4-42.5-98.5-66.2-146.6c-22.5-45.7-30-92.7-14.9-142.1c7.1-23.2,7.3-23-16.4-21.4c-10.3,0.7-20.7,0.8-31.1,0.4
		c-11.7-0.5-29.6-6.7-33.6-1.7c-6.6,8.3,5.5,20.8,8,32.2c11,51.6,0,99-23.9,145.4c-24.9,48.3-48.6,97.3-65.5,149
		c-10.8,32.9-7.8,38.8,25.6,51.2C190.3,450.5,223.3,452.9,256.2,454.6z M269.2,51.3c10.6-0.8,9.9-0.5,17.3-1.4
		c3.7-0.5,4-5.5,0.3-6.1c-8.4-1.3-16.8-1.2-25-1.2c-6.7,0-34.4-1.4-30,4.5c0.9,1.2,5.7,2.3,12.1,3.1c5.6,0.7,10.2,0.9,16,1.1
		C265.8,51.4,266.6,51.5,269.2,51.3z"/>
	<path fill="#DDDDDE" d="M122.3,434.3c51.9,33.5,110.1,34.9,168.8,30.9c35.7-2.4,70.9-9,101.2-30.1c24.4,7.1,17.6,35.4-17.3,42.8
		c-52.7,10.2-97.9,15.9-151.5,10.7c-27.8-3.4-55.6-5.1-83-12.3C104.2,466.8,99,446.4,122.3,434.3z"/>
	<path fill="#B53025" d="M255.4,372.7c32.5,4.9,64.3,4.1,93.8-12.2c7.9-4.4,11.9-4.2,14.6,5.2c3.5,12.2,9.5,23.4,11.2,36.4
		c-53.4,30.2-110.5,32.5-169.5,22.4c-23.2-4-43.6-15.4-65.6-22.6c4.3-13.2,9.4-26.3,12.6-39.7c3.9-16.1,12.2-20.3,27-12.8
		C203.5,361.5,228.7,369.6,255.4,372.7z"/>
	<path fill="#921E1E" d="M189,345c42.4-15.7,85.4-26.4,130.9-14.7c11.8,3.1,30.3,6.2,30.9,16.1c0.6,8.7-18.3,12.4-29.8,15.7
		c-5.3,1.5-10.6,2.7-16,4C264.8,367.3,225.1,365.7,189,345z"/>
	<path fill="#931F1F" d="M140,401.9c22,7.3,42.4,18.6,65.6,22.6c59,10.1,116.1,7.8,169.5-22.4c7.2,20.6-6.1,23.5-17.9,28
		c-41.9,15.8-85.6,18.5-129.9,14.8c-25.4-2.1-50.3-6.4-74-16.6C140.8,423,133.9,415.9,140,401.9z"/>
	<path fill="#B93B30" d="M269.9,254.4c10.6,1.1,18,8.3,17.7,21c-0.3,12.7-8.5,20.4-21.2,20.2c-13.8-0.2-22.1-8.7-21.2-22.2
		C245.9,261.1,254,254,269.9,254.4z M266.7,285.1c6.6-1.1,10.2-4.7,9.7-11.2c-0.5-6.5-4.8-10.1-11-9.5c-6,0.6-10.3,4.6-9.8,11
		C256.1,281.8,260.8,284.5,266.7,285.1z"/>
	<path fill="#9D3535" d="M270.1,202.1c-0.8,9.4-4.3,16.2-14.5,16.9c-10.4,0.7-17.4-3.2-18-14.4c-0.6-9.8,4.3-15.7,13.9-16.7
		C262,186.8,268.2,192.3,270.1,202.1z"/>
	<path fill="#EED9D8" d="M189,345c36.1,20.7,75.8,22.4,116,21.1c-15.5,9.8-33.9-2-49.6,6.7c-26.8-3.1-51.9-11.2-75.8-23.3
		C182.8,347.9,185.9,346.4,189,345z"/>
	<path fill="#992C2C" d="M213,323.3c-8.8-0.9-14.8-5.6-14.7-14c0.1-7.1,5.2-13.2,13.1-13.2c8.3,0.1,14.5,4.6,14.6,13.7
		C226,318.1,220.1,321.5,213,323.3z"/>
</g>
</svg>
